%TF.GenerationSoftware,KiCad,Pcbnew,(5.1.10)-1*%
%TF.CreationDate,2021-12-06T12:22:38-06:00*%
%TF.ProjectId,FPGA-Shield,46504741-2d53-4686-9965-6c642e6b6963,rev?*%
%TF.SameCoordinates,Original*%
%TF.FileFunction,Legend,Bot*%
%TF.FilePolarity,Positive*%
%FSLAX46Y46*%
G04 Gerber Fmt 4.6, Leading zero omitted, Abs format (unit mm)*
G04 Created by KiCad (PCBNEW (5.1.10)-1) date 2021-12-06 12:22:38*
%MOMM*%
%LPD*%
G01*
G04 APERTURE LIST*
%ADD10C,0.120000*%
%ADD11C,0.150000*%
G04 APERTURE END LIST*
D10*
%TO.C,R6*%
X160822936Y-53810000D02*
X162277064Y-53810000D01*
X160822936Y-51990000D02*
X162277064Y-51990000D01*
%TO.C,R5*%
X160772936Y-45540000D02*
X162227064Y-45540000D01*
X160772936Y-47360000D02*
X162227064Y-47360000D01*
%TO.C,R8*%
X160822936Y-57110000D02*
X162277064Y-57110000D01*
X160822936Y-55290000D02*
X162277064Y-55290000D01*
%TO.C,R7*%
X160672936Y-48290000D02*
X162127064Y-48290000D01*
X160672936Y-50110000D02*
X162127064Y-50110000D01*
%TO.C,R4*%
X134360000Y-75727064D02*
X134360000Y-74272936D01*
X132540000Y-75727064D02*
X132540000Y-74272936D01*
%TO.C,R3*%
X136910000Y-75727064D02*
X136910000Y-74272936D01*
X135090000Y-75727064D02*
X135090000Y-74272936D01*
%TO.C,R2*%
X131710000Y-75727064D02*
X131710000Y-74272936D01*
X129890000Y-75727064D02*
X129890000Y-74272936D01*
%TO.C,R1*%
X131222936Y-58910000D02*
X132677064Y-58910000D01*
X131222936Y-57090000D02*
X132677064Y-57090000D01*
%TO.C,C1*%
X136926248Y-58910000D02*
X138348752Y-58910000D01*
X136926248Y-57090000D02*
X138348752Y-57090000D01*
%TO.C,R6*%
D11*
X161716666Y-55172380D02*
X162050000Y-54696190D01*
X162288095Y-55172380D02*
X162288095Y-54172380D01*
X161907142Y-54172380D01*
X161811904Y-54220000D01*
X161764285Y-54267619D01*
X161716666Y-54362857D01*
X161716666Y-54505714D01*
X161764285Y-54600952D01*
X161811904Y-54648571D01*
X161907142Y-54696190D01*
X162288095Y-54696190D01*
X160859523Y-54172380D02*
X161050000Y-54172380D01*
X161145238Y-54220000D01*
X161192857Y-54267619D01*
X161288095Y-54410476D01*
X161335714Y-54600952D01*
X161335714Y-54981904D01*
X161288095Y-55077142D01*
X161240476Y-55124761D01*
X161145238Y-55172380D01*
X160954761Y-55172380D01*
X160859523Y-55124761D01*
X160811904Y-55077142D01*
X160764285Y-54981904D01*
X160764285Y-54743809D01*
X160811904Y-54648571D01*
X160859523Y-54600952D01*
X160954761Y-54553333D01*
X161145238Y-54553333D01*
X161240476Y-54600952D01*
X161288095Y-54648571D01*
X161335714Y-54743809D01*
%TO.C,R5*%
X161666666Y-48722380D02*
X162000000Y-48246190D01*
X162238095Y-48722380D02*
X162238095Y-47722380D01*
X161857142Y-47722380D01*
X161761904Y-47770000D01*
X161714285Y-47817619D01*
X161666666Y-47912857D01*
X161666666Y-48055714D01*
X161714285Y-48150952D01*
X161761904Y-48198571D01*
X161857142Y-48246190D01*
X162238095Y-48246190D01*
X160761904Y-47722380D02*
X161238095Y-47722380D01*
X161285714Y-48198571D01*
X161238095Y-48150952D01*
X161142857Y-48103333D01*
X160904761Y-48103333D01*
X160809523Y-48150952D01*
X160761904Y-48198571D01*
X160714285Y-48293809D01*
X160714285Y-48531904D01*
X160761904Y-48627142D01*
X160809523Y-48674761D01*
X160904761Y-48722380D01*
X161142857Y-48722380D01*
X161238095Y-48674761D01*
X161285714Y-48627142D01*
%TO.C,R8*%
X161716666Y-58472380D02*
X162050000Y-57996190D01*
X162288095Y-58472380D02*
X162288095Y-57472380D01*
X161907142Y-57472380D01*
X161811904Y-57520000D01*
X161764285Y-57567619D01*
X161716666Y-57662857D01*
X161716666Y-57805714D01*
X161764285Y-57900952D01*
X161811904Y-57948571D01*
X161907142Y-57996190D01*
X162288095Y-57996190D01*
X161145238Y-57900952D02*
X161240476Y-57853333D01*
X161288095Y-57805714D01*
X161335714Y-57710476D01*
X161335714Y-57662857D01*
X161288095Y-57567619D01*
X161240476Y-57520000D01*
X161145238Y-57472380D01*
X160954761Y-57472380D01*
X160859523Y-57520000D01*
X160811904Y-57567619D01*
X160764285Y-57662857D01*
X160764285Y-57710476D01*
X160811904Y-57805714D01*
X160859523Y-57853333D01*
X160954761Y-57900952D01*
X161145238Y-57900952D01*
X161240476Y-57948571D01*
X161288095Y-57996190D01*
X161335714Y-58091428D01*
X161335714Y-58281904D01*
X161288095Y-58377142D01*
X161240476Y-58424761D01*
X161145238Y-58472380D01*
X160954761Y-58472380D01*
X160859523Y-58424761D01*
X160811904Y-58377142D01*
X160764285Y-58281904D01*
X160764285Y-58091428D01*
X160811904Y-57996190D01*
X160859523Y-57948571D01*
X160954761Y-57900952D01*
%TO.C,R7*%
X161566666Y-51472380D02*
X161900000Y-50996190D01*
X162138095Y-51472380D02*
X162138095Y-50472380D01*
X161757142Y-50472380D01*
X161661904Y-50520000D01*
X161614285Y-50567619D01*
X161566666Y-50662857D01*
X161566666Y-50805714D01*
X161614285Y-50900952D01*
X161661904Y-50948571D01*
X161757142Y-50996190D01*
X162138095Y-50996190D01*
X161233333Y-50472380D02*
X160566666Y-50472380D01*
X160995238Y-51472380D01*
%TO.C,R4*%
X133852380Y-78533333D02*
X133376190Y-78200000D01*
X133852380Y-77961904D02*
X132852380Y-77961904D01*
X132852380Y-78342857D01*
X132900000Y-78438095D01*
X132947619Y-78485714D01*
X133042857Y-78533333D01*
X133185714Y-78533333D01*
X133280952Y-78485714D01*
X133328571Y-78438095D01*
X133376190Y-78342857D01*
X133376190Y-77961904D01*
X133185714Y-79390476D02*
X133852380Y-79390476D01*
X132804761Y-79152380D02*
X133519047Y-78914285D01*
X133519047Y-79533333D01*
%TO.C,R3*%
X136452380Y-78483333D02*
X135976190Y-78150000D01*
X136452380Y-77911904D02*
X135452380Y-77911904D01*
X135452380Y-78292857D01*
X135500000Y-78388095D01*
X135547619Y-78435714D01*
X135642857Y-78483333D01*
X135785714Y-78483333D01*
X135880952Y-78435714D01*
X135928571Y-78388095D01*
X135976190Y-78292857D01*
X135976190Y-77911904D01*
X135452380Y-78816666D02*
X135452380Y-79435714D01*
X135833333Y-79102380D01*
X135833333Y-79245238D01*
X135880952Y-79340476D01*
X135928571Y-79388095D01*
X136023809Y-79435714D01*
X136261904Y-79435714D01*
X136357142Y-79388095D01*
X136404761Y-79340476D01*
X136452380Y-79245238D01*
X136452380Y-78959523D01*
X136404761Y-78864285D01*
X136357142Y-78816666D01*
%TO.C,R2*%
X131202380Y-78433333D02*
X130726190Y-78100000D01*
X131202380Y-77861904D02*
X130202380Y-77861904D01*
X130202380Y-78242857D01*
X130250000Y-78338095D01*
X130297619Y-78385714D01*
X130392857Y-78433333D01*
X130535714Y-78433333D01*
X130630952Y-78385714D01*
X130678571Y-78338095D01*
X130726190Y-78242857D01*
X130726190Y-77861904D01*
X130297619Y-78814285D02*
X130250000Y-78861904D01*
X130202380Y-78957142D01*
X130202380Y-79195238D01*
X130250000Y-79290476D01*
X130297619Y-79338095D01*
X130392857Y-79385714D01*
X130488095Y-79385714D01*
X130630952Y-79338095D01*
X131202380Y-78766666D01*
X131202380Y-79385714D01*
%TO.C,R1*%
X132116666Y-60272380D02*
X132450000Y-59796190D01*
X132688095Y-60272380D02*
X132688095Y-59272380D01*
X132307142Y-59272380D01*
X132211904Y-59320000D01*
X132164285Y-59367619D01*
X132116666Y-59462857D01*
X132116666Y-59605714D01*
X132164285Y-59700952D01*
X132211904Y-59748571D01*
X132307142Y-59796190D01*
X132688095Y-59796190D01*
X131164285Y-60272380D02*
X131735714Y-60272380D01*
X131450000Y-60272380D02*
X131450000Y-59272380D01*
X131545238Y-59415238D01*
X131640476Y-59510476D01*
X131735714Y-59558095D01*
%TO.C,C1*%
X137804166Y-60207142D02*
X137851785Y-60254761D01*
X137994642Y-60302380D01*
X138089880Y-60302380D01*
X138232738Y-60254761D01*
X138327976Y-60159523D01*
X138375595Y-60064285D01*
X138423214Y-59873809D01*
X138423214Y-59730952D01*
X138375595Y-59540476D01*
X138327976Y-59445238D01*
X138232738Y-59350000D01*
X138089880Y-59302380D01*
X137994642Y-59302380D01*
X137851785Y-59350000D01*
X137804166Y-59397619D01*
X136851785Y-60302380D02*
X137423214Y-60302380D01*
X137137500Y-60302380D02*
X137137500Y-59302380D01*
X137232738Y-59445238D01*
X137327976Y-59540476D01*
X137423214Y-59588095D01*
%TD*%
M02*
