%TF.GenerationSoftware,KiCad,Pcbnew,(5.1.10)-1*%
%TF.CreationDate,2021-12-06T12:22:38-06:00*%
%TF.ProjectId,FPGA-Shield,46504741-2d53-4686-9965-6c642e6b6963,rev?*%
%TF.SameCoordinates,Original*%
%TF.FileFunction,Legend,Top*%
%TF.FilePolarity,Positive*%
%FSLAX46Y46*%
G04 Gerber Fmt 4.6, Leading zero omitted, Abs format (unit mm)*
G04 Created by KiCad (PCBNEW (5.1.10)-1) date 2021-12-06 12:22:38*
%MOMM*%
%LPD*%
G01*
G04 APERTURE LIST*
%ADD10C,0.120000*%
%ADD11C,0.100000*%
%ADD12C,0.200000*%
%ADD13C,0.150000*%
%ADD14C,0.254000*%
G04 APERTURE END LIST*
D10*
%TO.C,R12*%
X138890000Y-75977064D02*
X138890000Y-74522936D01*
X140710000Y-75977064D02*
X140710000Y-74522936D01*
%TO.C,R11*%
X142890000Y-75977064D02*
X142890000Y-74522936D01*
X144710000Y-75977064D02*
X144710000Y-74522936D01*
%TO.C,R10*%
X141490000Y-83277064D02*
X141490000Y-81822936D01*
X143310000Y-83277064D02*
X143310000Y-81822936D01*
%TO.C,R9*%
X137890000Y-83077064D02*
X137890000Y-81622936D01*
X139710000Y-83077064D02*
X139710000Y-81622936D01*
%TO.C,C10*%
X146860000Y-67826248D02*
X146860000Y-69248752D01*
X145040000Y-67826248D02*
X145040000Y-69248752D01*
%TO.C,C9*%
X143160000Y-67826248D02*
X143160000Y-69248752D01*
X141340000Y-67826248D02*
X141340000Y-69248752D01*
%TO.C,C8*%
X131910000Y-81798748D02*
X131910000Y-83221252D01*
X130090000Y-81798748D02*
X130090000Y-83221252D01*
%TO.C,C7*%
X128110000Y-81788748D02*
X128110000Y-83211252D01*
X126290000Y-81788748D02*
X126290000Y-83211252D01*
%TO.C,C6*%
X135360000Y-81726248D02*
X135360000Y-83148752D01*
X133540000Y-81726248D02*
X133540000Y-83148752D01*
%TO.C,C5*%
X171711252Y-82310000D02*
X170288748Y-82310000D01*
X171711252Y-80490000D02*
X170288748Y-80490000D01*
%TO.C,C4*%
X152290000Y-82248752D02*
X152290000Y-80826248D01*
X154110000Y-82248752D02*
X154110000Y-80826248D01*
%TO.C,C3*%
X169410000Y-64476248D02*
X169410000Y-65898752D01*
X167590000Y-64476248D02*
X167590000Y-65898752D01*
%TO.C,C2*%
X152726248Y-65490000D02*
X154148752Y-65490000D01*
X152726248Y-67310000D02*
X154148752Y-67310000D01*
D11*
%TO.C,SW1*%
X147250000Y-60700000D02*
X147250000Y-60700000D01*
X147250000Y-60800000D02*
X147250000Y-60800000D01*
D12*
X143550000Y-55000000D02*
X143550000Y-58700000D01*
X143550000Y-58700000D02*
X145750000Y-58700000D01*
X155950000Y-55000000D02*
X155950000Y-58700000D01*
X155950000Y-58700000D02*
X153750000Y-58700000D01*
X143550000Y-49000000D02*
X143550000Y-45300000D01*
X143550000Y-45300000D02*
X155950000Y-45300000D01*
X155950000Y-45300000D02*
X155950000Y-49000000D01*
D11*
X147250000Y-60700000D02*
G75*
G02*
X147250000Y-60800000I0J-50000D01*
G01*
X147250000Y-60800000D02*
G75*
G02*
X147250000Y-60700000I0J50000D01*
G01*
D10*
%TO.C,BZ1*%
X106250000Y-78300000D02*
G75*
G03*
X106250000Y-78300000I-7100000J0D01*
G01*
D11*
%TO.C,D1*%
X138895000Y-63900000D02*
X138895000Y-63900000D01*
X138895000Y-63800000D02*
X138895000Y-63800000D01*
X138895000Y-63900000D02*
G75*
G02*
X138895000Y-63800000I0J50000D01*
G01*
X138895000Y-63800000D02*
G75*
G02*
X138895000Y-63900000I0J-50000D01*
G01*
D10*
%TO.C,SW2*%
X156100000Y-75400000D02*
X156100000Y-70900000D01*
X152100000Y-76650000D02*
X153600000Y-76650000D01*
X149600000Y-70900000D02*
X149600000Y-75400000D01*
X153600000Y-69650000D02*
X152100000Y-69650000D01*
%TO.C,SW3*%
X165500000Y-66250000D02*
X165500000Y-64750000D01*
X164250000Y-62250000D02*
X159750000Y-62250000D01*
X158500000Y-64750000D02*
X158500000Y-66250000D01*
X159750000Y-68750000D02*
X164250000Y-68750000D01*
%TO.C,SW4*%
X158500000Y-80250000D02*
X158500000Y-81750000D01*
X159750000Y-84250000D02*
X164250000Y-84250000D01*
X165500000Y-81750000D02*
X165500000Y-80250000D01*
X164250000Y-77750000D02*
X159750000Y-77750000D01*
%TO.C,SW5*%
X174500000Y-75600000D02*
X174500000Y-71100000D01*
X170500000Y-76850000D02*
X172000000Y-76850000D01*
X168000000Y-71100000D02*
X168000000Y-75600000D01*
X172000000Y-69850000D02*
X170500000Y-69850000D01*
D12*
%TO.C,U2*%
X132100000Y-45450000D02*
X133500000Y-45450000D01*
X133850000Y-48500000D02*
X133850000Y-45500000D01*
X136150000Y-48500000D02*
X133850000Y-48500000D01*
X136150000Y-45500000D02*
X136150000Y-48500000D01*
X133850000Y-45500000D02*
X136150000Y-45500000D01*
%TO.C,U3*%
X136400000Y-55450000D02*
X133200000Y-55450000D01*
X133200000Y-55450000D02*
X133200000Y-50550000D01*
X133200000Y-50550000D02*
X136400000Y-50550000D01*
X136400000Y-50550000D02*
X136400000Y-55450000D01*
X138275000Y-55580000D02*
X136750000Y-55580000D01*
%TO.C,U4*%
X129045000Y-70115000D02*
X129045000Y-77950000D01*
X109355000Y-71350000D02*
X109355000Y-77950000D01*
%TO.C,J1*%
X111469900Y-40900000D02*
G75*
G03*
X111469900Y-40900000I-100000J0D01*
G01*
X137924900Y-39795000D02*
X137924900Y-42205000D01*
X137924900Y-42205000D02*
X112014900Y-42205000D01*
X112014900Y-39795000D02*
X137924900Y-39795000D01*
X112014900Y-42205000D02*
X112014900Y-39795000D01*
%TO.C,J2*%
X138685000Y-39795000D02*
X159515000Y-39795000D01*
X159515000Y-39795000D02*
X159515000Y-42205000D01*
X159515000Y-42205000D02*
X138685000Y-42205000D01*
X138685000Y-42205000D02*
X138685000Y-39795000D01*
X140310000Y-42750000D02*
G75*
G03*
X140310000Y-42750000I-100000J0D01*
G01*
%TO.C,J3*%
X123820200Y-90450000D02*
G75*
G03*
X123820200Y-90450000I-100000J0D01*
G01*
X122195200Y-89905000D02*
X122195200Y-87495000D01*
X143025200Y-89905000D02*
X122195200Y-89905000D01*
X143025200Y-87495000D02*
X143025200Y-89905000D01*
X122195200Y-87495000D02*
X143025200Y-87495000D01*
%TO.C,J4*%
X143250000Y-88700000D02*
G75*
G03*
X143250000Y-88700000I-100000J0D01*
G01*
X143775000Y-89905000D02*
X143775000Y-87495000D01*
X159525000Y-89905000D02*
X143775000Y-89905000D01*
X159525000Y-87495000D02*
X159525000Y-89905000D01*
X143775000Y-87495000D02*
X159525000Y-87495000D01*
%TO.C,U1*%
D13*
X116938095Y-53502380D02*
X116938095Y-54311904D01*
X116985714Y-54407142D01*
X117033333Y-54454761D01*
X117128571Y-54502380D01*
X117319047Y-54502380D01*
X117414285Y-54454761D01*
X117461904Y-54407142D01*
X117509523Y-54311904D01*
X117509523Y-53502380D01*
X118509523Y-54502380D02*
X117938095Y-54502380D01*
X118223809Y-54502380D02*
X118223809Y-53502380D01*
X118128571Y-53645238D01*
X118033333Y-53740476D01*
X117938095Y-53788095D01*
%TO.C,H2*%
X169938095Y-85652380D02*
X169938095Y-84652380D01*
X169938095Y-85128571D02*
X170509523Y-85128571D01*
X170509523Y-85652380D02*
X170509523Y-84652380D01*
X170938095Y-84747619D02*
X170985714Y-84700000D01*
X171080952Y-84652380D01*
X171319047Y-84652380D01*
X171414285Y-84700000D01*
X171461904Y-84747619D01*
X171509523Y-84842857D01*
X171509523Y-84938095D01*
X171461904Y-85080952D01*
X170890476Y-85652380D01*
X171509523Y-85652380D01*
%TO.C,H1*%
X102538095Y-85752380D02*
X102538095Y-84752380D01*
X102538095Y-85228571D02*
X103109523Y-85228571D01*
X103109523Y-85752380D02*
X103109523Y-84752380D01*
X104109523Y-85752380D02*
X103538095Y-85752380D01*
X103823809Y-85752380D02*
X103823809Y-84752380D01*
X103728571Y-84895238D01*
X103633333Y-84990476D01*
X103538095Y-85038095D01*
%TO.C,R12*%
X138432380Y-75892857D02*
X137956190Y-76226190D01*
X138432380Y-76464285D02*
X137432380Y-76464285D01*
X137432380Y-76083333D01*
X137480000Y-75988095D01*
X137527619Y-75940476D01*
X137622857Y-75892857D01*
X137765714Y-75892857D01*
X137860952Y-75940476D01*
X137908571Y-75988095D01*
X137956190Y-76083333D01*
X137956190Y-76464285D01*
X138432380Y-74940476D02*
X138432380Y-75511904D01*
X138432380Y-75226190D02*
X137432380Y-75226190D01*
X137575238Y-75321428D01*
X137670476Y-75416666D01*
X137718095Y-75511904D01*
X137527619Y-74559523D02*
X137480000Y-74511904D01*
X137432380Y-74416666D01*
X137432380Y-74178571D01*
X137480000Y-74083333D01*
X137527619Y-74035714D01*
X137622857Y-73988095D01*
X137718095Y-73988095D01*
X137860952Y-74035714D01*
X138432380Y-74607142D01*
X138432380Y-73988095D01*
%TO.C,R11*%
X142432380Y-75892857D02*
X141956190Y-76226190D01*
X142432380Y-76464285D02*
X141432380Y-76464285D01*
X141432380Y-76083333D01*
X141480000Y-75988095D01*
X141527619Y-75940476D01*
X141622857Y-75892857D01*
X141765714Y-75892857D01*
X141860952Y-75940476D01*
X141908571Y-75988095D01*
X141956190Y-76083333D01*
X141956190Y-76464285D01*
X142432380Y-74940476D02*
X142432380Y-75511904D01*
X142432380Y-75226190D02*
X141432380Y-75226190D01*
X141575238Y-75321428D01*
X141670476Y-75416666D01*
X141718095Y-75511904D01*
X142432380Y-73988095D02*
X142432380Y-74559523D01*
X142432380Y-74273809D02*
X141432380Y-74273809D01*
X141575238Y-74369047D01*
X141670476Y-74464285D01*
X141718095Y-74559523D01*
%TO.C,R10*%
X141032380Y-83192857D02*
X140556190Y-83526190D01*
X141032380Y-83764285D02*
X140032380Y-83764285D01*
X140032380Y-83383333D01*
X140080000Y-83288095D01*
X140127619Y-83240476D01*
X140222857Y-83192857D01*
X140365714Y-83192857D01*
X140460952Y-83240476D01*
X140508571Y-83288095D01*
X140556190Y-83383333D01*
X140556190Y-83764285D01*
X141032380Y-82240476D02*
X141032380Y-82811904D01*
X141032380Y-82526190D02*
X140032380Y-82526190D01*
X140175238Y-82621428D01*
X140270476Y-82716666D01*
X140318095Y-82811904D01*
X140032380Y-81621428D02*
X140032380Y-81526190D01*
X140080000Y-81430952D01*
X140127619Y-81383333D01*
X140222857Y-81335714D01*
X140413333Y-81288095D01*
X140651428Y-81288095D01*
X140841904Y-81335714D01*
X140937142Y-81383333D01*
X140984761Y-81430952D01*
X141032380Y-81526190D01*
X141032380Y-81621428D01*
X140984761Y-81716666D01*
X140937142Y-81764285D01*
X140841904Y-81811904D01*
X140651428Y-81859523D01*
X140413333Y-81859523D01*
X140222857Y-81811904D01*
X140127619Y-81764285D01*
X140080000Y-81716666D01*
X140032380Y-81621428D01*
%TO.C,R9*%
X137432380Y-82516666D02*
X136956190Y-82850000D01*
X137432380Y-83088095D02*
X136432380Y-83088095D01*
X136432380Y-82707142D01*
X136480000Y-82611904D01*
X136527619Y-82564285D01*
X136622857Y-82516666D01*
X136765714Y-82516666D01*
X136860952Y-82564285D01*
X136908571Y-82611904D01*
X136956190Y-82707142D01*
X136956190Y-83088095D01*
X137432380Y-82040476D02*
X137432380Y-81850000D01*
X137384761Y-81754761D01*
X137337142Y-81707142D01*
X137194285Y-81611904D01*
X137003809Y-81564285D01*
X136622857Y-81564285D01*
X136527619Y-81611904D01*
X136480000Y-81659523D01*
X136432380Y-81754761D01*
X136432380Y-81945238D01*
X136480000Y-82040476D01*
X136527619Y-82088095D01*
X136622857Y-82135714D01*
X136860952Y-82135714D01*
X136956190Y-82088095D01*
X137003809Y-82040476D01*
X137051428Y-81945238D01*
X137051428Y-81754761D01*
X137003809Y-81659523D01*
X136956190Y-81611904D01*
X136860952Y-81564285D01*
%TO.C,C10*%
X148157142Y-69180357D02*
X148204761Y-69227976D01*
X148252380Y-69370833D01*
X148252380Y-69466071D01*
X148204761Y-69608928D01*
X148109523Y-69704166D01*
X148014285Y-69751785D01*
X147823809Y-69799404D01*
X147680952Y-69799404D01*
X147490476Y-69751785D01*
X147395238Y-69704166D01*
X147300000Y-69608928D01*
X147252380Y-69466071D01*
X147252380Y-69370833D01*
X147300000Y-69227976D01*
X147347619Y-69180357D01*
X148252380Y-68227976D02*
X148252380Y-68799404D01*
X148252380Y-68513690D02*
X147252380Y-68513690D01*
X147395238Y-68608928D01*
X147490476Y-68704166D01*
X147538095Y-68799404D01*
X147252380Y-67608928D02*
X147252380Y-67513690D01*
X147300000Y-67418452D01*
X147347619Y-67370833D01*
X147442857Y-67323214D01*
X147633333Y-67275595D01*
X147871428Y-67275595D01*
X148061904Y-67323214D01*
X148157142Y-67370833D01*
X148204761Y-67418452D01*
X148252380Y-67513690D01*
X148252380Y-67608928D01*
X148204761Y-67704166D01*
X148157142Y-67751785D01*
X148061904Y-67799404D01*
X147871428Y-67847023D01*
X147633333Y-67847023D01*
X147442857Y-67799404D01*
X147347619Y-67751785D01*
X147300000Y-67704166D01*
X147252380Y-67608928D01*
%TO.C,C9*%
X144457142Y-68704166D02*
X144504761Y-68751785D01*
X144552380Y-68894642D01*
X144552380Y-68989880D01*
X144504761Y-69132738D01*
X144409523Y-69227976D01*
X144314285Y-69275595D01*
X144123809Y-69323214D01*
X143980952Y-69323214D01*
X143790476Y-69275595D01*
X143695238Y-69227976D01*
X143600000Y-69132738D01*
X143552380Y-68989880D01*
X143552380Y-68894642D01*
X143600000Y-68751785D01*
X143647619Y-68704166D01*
X144552380Y-68227976D02*
X144552380Y-68037500D01*
X144504761Y-67942261D01*
X144457142Y-67894642D01*
X144314285Y-67799404D01*
X144123809Y-67751785D01*
X143742857Y-67751785D01*
X143647619Y-67799404D01*
X143600000Y-67847023D01*
X143552380Y-67942261D01*
X143552380Y-68132738D01*
X143600000Y-68227976D01*
X143647619Y-68275595D01*
X143742857Y-68323214D01*
X143980952Y-68323214D01*
X144076190Y-68275595D01*
X144123809Y-68227976D01*
X144171428Y-68132738D01*
X144171428Y-67942261D01*
X144123809Y-67847023D01*
X144076190Y-67799404D01*
X143980952Y-67751785D01*
%TO.C,C8*%
X133207142Y-82676666D02*
X133254761Y-82724285D01*
X133302380Y-82867142D01*
X133302380Y-82962380D01*
X133254761Y-83105238D01*
X133159523Y-83200476D01*
X133064285Y-83248095D01*
X132873809Y-83295714D01*
X132730952Y-83295714D01*
X132540476Y-83248095D01*
X132445238Y-83200476D01*
X132350000Y-83105238D01*
X132302380Y-82962380D01*
X132302380Y-82867142D01*
X132350000Y-82724285D01*
X132397619Y-82676666D01*
X132730952Y-82105238D02*
X132683333Y-82200476D01*
X132635714Y-82248095D01*
X132540476Y-82295714D01*
X132492857Y-82295714D01*
X132397619Y-82248095D01*
X132350000Y-82200476D01*
X132302380Y-82105238D01*
X132302380Y-81914761D01*
X132350000Y-81819523D01*
X132397619Y-81771904D01*
X132492857Y-81724285D01*
X132540476Y-81724285D01*
X132635714Y-81771904D01*
X132683333Y-81819523D01*
X132730952Y-81914761D01*
X132730952Y-82105238D01*
X132778571Y-82200476D01*
X132826190Y-82248095D01*
X132921428Y-82295714D01*
X133111904Y-82295714D01*
X133207142Y-82248095D01*
X133254761Y-82200476D01*
X133302380Y-82105238D01*
X133302380Y-81914761D01*
X133254761Y-81819523D01*
X133207142Y-81771904D01*
X133111904Y-81724285D01*
X132921428Y-81724285D01*
X132826190Y-81771904D01*
X132778571Y-81819523D01*
X132730952Y-81914761D01*
%TO.C,C7*%
X129407142Y-82666666D02*
X129454761Y-82714285D01*
X129502380Y-82857142D01*
X129502380Y-82952380D01*
X129454761Y-83095238D01*
X129359523Y-83190476D01*
X129264285Y-83238095D01*
X129073809Y-83285714D01*
X128930952Y-83285714D01*
X128740476Y-83238095D01*
X128645238Y-83190476D01*
X128550000Y-83095238D01*
X128502380Y-82952380D01*
X128502380Y-82857142D01*
X128550000Y-82714285D01*
X128597619Y-82666666D01*
X128502380Y-82333333D02*
X128502380Y-81666666D01*
X129502380Y-82095238D01*
%TO.C,C6*%
X136657142Y-82604166D02*
X136704761Y-82651785D01*
X136752380Y-82794642D01*
X136752380Y-82889880D01*
X136704761Y-83032738D01*
X136609523Y-83127976D01*
X136514285Y-83175595D01*
X136323809Y-83223214D01*
X136180952Y-83223214D01*
X135990476Y-83175595D01*
X135895238Y-83127976D01*
X135800000Y-83032738D01*
X135752380Y-82889880D01*
X135752380Y-82794642D01*
X135800000Y-82651785D01*
X135847619Y-82604166D01*
X135752380Y-81747023D02*
X135752380Y-81937500D01*
X135800000Y-82032738D01*
X135847619Y-82080357D01*
X135990476Y-82175595D01*
X136180952Y-82223214D01*
X136561904Y-82223214D01*
X136657142Y-82175595D01*
X136704761Y-82127976D01*
X136752380Y-82032738D01*
X136752380Y-81842261D01*
X136704761Y-81747023D01*
X136657142Y-81699404D01*
X136561904Y-81651785D01*
X136323809Y-81651785D01*
X136228571Y-81699404D01*
X136180952Y-81747023D01*
X136133333Y-81842261D01*
X136133333Y-82032738D01*
X136180952Y-82127976D01*
X136228571Y-82175595D01*
X136323809Y-82223214D01*
%TO.C,C5*%
X170833333Y-83607142D02*
X170785714Y-83654761D01*
X170642857Y-83702380D01*
X170547619Y-83702380D01*
X170404761Y-83654761D01*
X170309523Y-83559523D01*
X170261904Y-83464285D01*
X170214285Y-83273809D01*
X170214285Y-83130952D01*
X170261904Y-82940476D01*
X170309523Y-82845238D01*
X170404761Y-82750000D01*
X170547619Y-82702380D01*
X170642857Y-82702380D01*
X170785714Y-82750000D01*
X170833333Y-82797619D01*
X171738095Y-82702380D02*
X171261904Y-82702380D01*
X171214285Y-83178571D01*
X171261904Y-83130952D01*
X171357142Y-83083333D01*
X171595238Y-83083333D01*
X171690476Y-83130952D01*
X171738095Y-83178571D01*
X171785714Y-83273809D01*
X171785714Y-83511904D01*
X171738095Y-83607142D01*
X171690476Y-83654761D01*
X171595238Y-83702380D01*
X171357142Y-83702380D01*
X171261904Y-83654761D01*
X171214285Y-83607142D01*
%TO.C,C4*%
X151707142Y-81704166D02*
X151754761Y-81751785D01*
X151802380Y-81894642D01*
X151802380Y-81989880D01*
X151754761Y-82132738D01*
X151659523Y-82227976D01*
X151564285Y-82275595D01*
X151373809Y-82323214D01*
X151230952Y-82323214D01*
X151040476Y-82275595D01*
X150945238Y-82227976D01*
X150850000Y-82132738D01*
X150802380Y-81989880D01*
X150802380Y-81894642D01*
X150850000Y-81751785D01*
X150897619Y-81704166D01*
X151135714Y-80847023D02*
X151802380Y-80847023D01*
X150754761Y-81085119D02*
X151469047Y-81323214D01*
X151469047Y-80704166D01*
%TO.C,C3*%
X170707142Y-65354166D02*
X170754761Y-65401785D01*
X170802380Y-65544642D01*
X170802380Y-65639880D01*
X170754761Y-65782738D01*
X170659523Y-65877976D01*
X170564285Y-65925595D01*
X170373809Y-65973214D01*
X170230952Y-65973214D01*
X170040476Y-65925595D01*
X169945238Y-65877976D01*
X169850000Y-65782738D01*
X169802380Y-65639880D01*
X169802380Y-65544642D01*
X169850000Y-65401785D01*
X169897619Y-65354166D01*
X169802380Y-65020833D02*
X169802380Y-64401785D01*
X170183333Y-64735119D01*
X170183333Y-64592261D01*
X170230952Y-64497023D01*
X170278571Y-64449404D01*
X170373809Y-64401785D01*
X170611904Y-64401785D01*
X170707142Y-64449404D01*
X170754761Y-64497023D01*
X170802380Y-64592261D01*
X170802380Y-64877976D01*
X170754761Y-64973214D01*
X170707142Y-65020833D01*
%TO.C,C2*%
X153270833Y-64907142D02*
X153223214Y-64954761D01*
X153080357Y-65002380D01*
X152985119Y-65002380D01*
X152842261Y-64954761D01*
X152747023Y-64859523D01*
X152699404Y-64764285D01*
X152651785Y-64573809D01*
X152651785Y-64430952D01*
X152699404Y-64240476D01*
X152747023Y-64145238D01*
X152842261Y-64050000D01*
X152985119Y-64002380D01*
X153080357Y-64002380D01*
X153223214Y-64050000D01*
X153270833Y-64097619D01*
X153651785Y-64097619D02*
X153699404Y-64050000D01*
X153794642Y-64002380D01*
X154032738Y-64002380D01*
X154127976Y-64050000D01*
X154175595Y-64097619D01*
X154223214Y-64192857D01*
X154223214Y-64288095D01*
X154175595Y-64430952D01*
X153604166Y-65002380D01*
X154223214Y-65002380D01*
%TO.C,SW1*%
D14*
X148056666Y-53289047D02*
X148238095Y-53349523D01*
X148540476Y-53349523D01*
X148661428Y-53289047D01*
X148721904Y-53228571D01*
X148782380Y-53107619D01*
X148782380Y-52986666D01*
X148721904Y-52865714D01*
X148661428Y-52805238D01*
X148540476Y-52744761D01*
X148298571Y-52684285D01*
X148177619Y-52623809D01*
X148117142Y-52563333D01*
X148056666Y-52442380D01*
X148056666Y-52321428D01*
X148117142Y-52200476D01*
X148177619Y-52140000D01*
X148298571Y-52079523D01*
X148600952Y-52079523D01*
X148782380Y-52140000D01*
X149205714Y-52079523D02*
X149508095Y-53349523D01*
X149750000Y-52442380D01*
X149991904Y-53349523D01*
X150294285Y-52079523D01*
X151443333Y-53349523D02*
X150717619Y-53349523D01*
X151080476Y-53349523D02*
X151080476Y-52079523D01*
X150959523Y-52260952D01*
X150838571Y-52381904D01*
X150717619Y-52442380D01*
%TO.C,BZ1*%
D13*
X107308571Y-79340952D02*
X107356190Y-79198095D01*
X107403809Y-79150476D01*
X107499047Y-79102857D01*
X107641904Y-79102857D01*
X107737142Y-79150476D01*
X107784761Y-79198095D01*
X107832380Y-79293333D01*
X107832380Y-79674285D01*
X106832380Y-79674285D01*
X106832380Y-79340952D01*
X106880000Y-79245714D01*
X106927619Y-79198095D01*
X107022857Y-79150476D01*
X107118095Y-79150476D01*
X107213333Y-79198095D01*
X107260952Y-79245714D01*
X107308571Y-79340952D01*
X107308571Y-79674285D01*
X106832380Y-78769523D02*
X106832380Y-78102857D01*
X107832380Y-78769523D01*
X107832380Y-78102857D01*
X107832380Y-77198095D02*
X107832380Y-77769523D01*
X107832380Y-77483809D02*
X106832380Y-77483809D01*
X106975238Y-77579047D01*
X107070476Y-77674285D01*
X107118095Y-77769523D01*
X101761428Y-73670952D02*
X101761428Y-72909047D01*
X102142380Y-73290000D02*
X101380476Y-73290000D01*
%TO.C,D1*%
D14*
X134862619Y-69124523D02*
X134862619Y-67854523D01*
X135165000Y-67854523D01*
X135346428Y-67915000D01*
X135467380Y-68035952D01*
X135527857Y-68156904D01*
X135588333Y-68398809D01*
X135588333Y-68580238D01*
X135527857Y-68822142D01*
X135467380Y-68943095D01*
X135346428Y-69064047D01*
X135165000Y-69124523D01*
X134862619Y-69124523D01*
X136797857Y-69124523D02*
X136072142Y-69124523D01*
X136435000Y-69124523D02*
X136435000Y-67854523D01*
X136314047Y-68035952D01*
X136193095Y-68156904D01*
X136072142Y-68217380D01*
%TO.C,SW2*%
D13*
X149004761Y-74483333D02*
X149052380Y-74340476D01*
X149052380Y-74102380D01*
X149004761Y-74007142D01*
X148957142Y-73959523D01*
X148861904Y-73911904D01*
X148766666Y-73911904D01*
X148671428Y-73959523D01*
X148623809Y-74007142D01*
X148576190Y-74102380D01*
X148528571Y-74292857D01*
X148480952Y-74388095D01*
X148433333Y-74435714D01*
X148338095Y-74483333D01*
X148242857Y-74483333D01*
X148147619Y-74435714D01*
X148100000Y-74388095D01*
X148052380Y-74292857D01*
X148052380Y-74054761D01*
X148100000Y-73911904D01*
X148052380Y-73578571D02*
X149052380Y-73340476D01*
X148338095Y-73150000D01*
X149052380Y-72959523D01*
X148052380Y-72721428D01*
X148147619Y-72388095D02*
X148100000Y-72340476D01*
X148052380Y-72245238D01*
X148052380Y-72007142D01*
X148100000Y-71911904D01*
X148147619Y-71864285D01*
X148242857Y-71816666D01*
X148338095Y-71816666D01*
X148480952Y-71864285D01*
X149052380Y-72435714D01*
X149052380Y-71816666D01*
%TO.C,SW3*%
X160666666Y-61654761D02*
X160809523Y-61702380D01*
X161047619Y-61702380D01*
X161142857Y-61654761D01*
X161190476Y-61607142D01*
X161238095Y-61511904D01*
X161238095Y-61416666D01*
X161190476Y-61321428D01*
X161142857Y-61273809D01*
X161047619Y-61226190D01*
X160857142Y-61178571D01*
X160761904Y-61130952D01*
X160714285Y-61083333D01*
X160666666Y-60988095D01*
X160666666Y-60892857D01*
X160714285Y-60797619D01*
X160761904Y-60750000D01*
X160857142Y-60702380D01*
X161095238Y-60702380D01*
X161238095Y-60750000D01*
X161571428Y-60702380D02*
X161809523Y-61702380D01*
X162000000Y-60988095D01*
X162190476Y-61702380D01*
X162428571Y-60702380D01*
X162714285Y-60702380D02*
X163333333Y-60702380D01*
X163000000Y-61083333D01*
X163142857Y-61083333D01*
X163238095Y-61130952D01*
X163285714Y-61178571D01*
X163333333Y-61273809D01*
X163333333Y-61511904D01*
X163285714Y-61607142D01*
X163238095Y-61654761D01*
X163142857Y-61702380D01*
X162857142Y-61702380D01*
X162761904Y-61654761D01*
X162714285Y-61607142D01*
%TO.C,SW4*%
X160666666Y-85654761D02*
X160809523Y-85702380D01*
X161047619Y-85702380D01*
X161142857Y-85654761D01*
X161190476Y-85607142D01*
X161238095Y-85511904D01*
X161238095Y-85416666D01*
X161190476Y-85321428D01*
X161142857Y-85273809D01*
X161047619Y-85226190D01*
X160857142Y-85178571D01*
X160761904Y-85130952D01*
X160714285Y-85083333D01*
X160666666Y-84988095D01*
X160666666Y-84892857D01*
X160714285Y-84797619D01*
X160761904Y-84750000D01*
X160857142Y-84702380D01*
X161095238Y-84702380D01*
X161238095Y-84750000D01*
X161571428Y-84702380D02*
X161809523Y-85702380D01*
X162000000Y-84988095D01*
X162190476Y-85702380D01*
X162428571Y-84702380D01*
X163238095Y-85035714D02*
X163238095Y-85702380D01*
X163000000Y-84654761D02*
X162761904Y-85369047D01*
X163380952Y-85369047D01*
%TO.C,SW5*%
X167404761Y-74683333D02*
X167452380Y-74540476D01*
X167452380Y-74302380D01*
X167404761Y-74207142D01*
X167357142Y-74159523D01*
X167261904Y-74111904D01*
X167166666Y-74111904D01*
X167071428Y-74159523D01*
X167023809Y-74207142D01*
X166976190Y-74302380D01*
X166928571Y-74492857D01*
X166880952Y-74588095D01*
X166833333Y-74635714D01*
X166738095Y-74683333D01*
X166642857Y-74683333D01*
X166547619Y-74635714D01*
X166500000Y-74588095D01*
X166452380Y-74492857D01*
X166452380Y-74254761D01*
X166500000Y-74111904D01*
X166452380Y-73778571D02*
X167452380Y-73540476D01*
X166738095Y-73350000D01*
X167452380Y-73159523D01*
X166452380Y-72921428D01*
X166452380Y-72064285D02*
X166452380Y-72540476D01*
X166928571Y-72588095D01*
X166880952Y-72540476D01*
X166833333Y-72445238D01*
X166833333Y-72207142D01*
X166880952Y-72111904D01*
X166928571Y-72064285D01*
X167023809Y-72016666D01*
X167261904Y-72016666D01*
X167357142Y-72064285D01*
X167404761Y-72111904D01*
X167452380Y-72207142D01*
X167452380Y-72445238D01*
X167404761Y-72540476D01*
X167357142Y-72588095D01*
%TO.C,U2*%
D14*
X134032380Y-46304523D02*
X134032380Y-47332619D01*
X134092857Y-47453571D01*
X134153333Y-47514047D01*
X134274285Y-47574523D01*
X134516190Y-47574523D01*
X134637142Y-47514047D01*
X134697619Y-47453571D01*
X134758095Y-47332619D01*
X134758095Y-46304523D01*
X135302380Y-46425476D02*
X135362857Y-46365000D01*
X135483809Y-46304523D01*
X135786190Y-46304523D01*
X135907142Y-46365000D01*
X135967619Y-46425476D01*
X136028095Y-46546428D01*
X136028095Y-46667380D01*
X135967619Y-46848809D01*
X135241904Y-47574523D01*
X136028095Y-47574523D01*
%TO.C,U3*%
X133832380Y-52304523D02*
X133832380Y-53332619D01*
X133892857Y-53453571D01*
X133953333Y-53514047D01*
X134074285Y-53574523D01*
X134316190Y-53574523D01*
X134437142Y-53514047D01*
X134497619Y-53453571D01*
X134558095Y-53332619D01*
X134558095Y-52304523D01*
X135041904Y-52304523D02*
X135828095Y-52304523D01*
X135404761Y-52788333D01*
X135586190Y-52788333D01*
X135707142Y-52848809D01*
X135767619Y-52909285D01*
X135828095Y-53030238D01*
X135828095Y-53332619D01*
X135767619Y-53453571D01*
X135707142Y-53514047D01*
X135586190Y-53574523D01*
X135223333Y-53574523D01*
X135102380Y-53514047D01*
X135041904Y-53453571D01*
%TO.C,U4*%
X118504523Y-75617619D02*
X119532619Y-75617619D01*
X119653571Y-75557142D01*
X119714047Y-75496666D01*
X119774523Y-75375714D01*
X119774523Y-75133809D01*
X119714047Y-75012857D01*
X119653571Y-74952380D01*
X119532619Y-74891904D01*
X118504523Y-74891904D01*
X118927857Y-73742857D02*
X119774523Y-73742857D01*
X118444047Y-74045238D02*
X119351190Y-74347619D01*
X119351190Y-73561428D01*
%TO.C,J1*%
D13*
X109536566Y-40352380D02*
X109536566Y-41066666D01*
X109488947Y-41209523D01*
X109393709Y-41304761D01*
X109250852Y-41352380D01*
X109155614Y-41352380D01*
X110536566Y-41352380D02*
X109965138Y-41352380D01*
X110250852Y-41352380D02*
X110250852Y-40352380D01*
X110155614Y-40495238D01*
X110060376Y-40590476D01*
X109965138Y-40638095D01*
%TO.C,J2*%
X138933333Y-43233333D02*
X138933333Y-44233333D01*
X138866666Y-44433333D01*
X138733333Y-44566666D01*
X138533333Y-44633333D01*
X138400000Y-44633333D01*
X139533333Y-43366666D02*
X139600000Y-43300000D01*
X139733333Y-43233333D01*
X140066666Y-43233333D01*
X140200000Y-43300000D01*
X140266666Y-43366666D01*
X140333333Y-43500000D01*
X140333333Y-43633333D01*
X140266666Y-43833333D01*
X139466666Y-44633333D01*
X140333333Y-44633333D01*
%TO.C,J3*%
X126173533Y-85294333D02*
X126173533Y-86294333D01*
X126106866Y-86494333D01*
X125973533Y-86627666D01*
X125773533Y-86694333D01*
X125640200Y-86694333D01*
X126706866Y-85294333D02*
X127573533Y-85294333D01*
X127106866Y-85827666D01*
X127306866Y-85827666D01*
X127440200Y-85894333D01*
X127506866Y-85961000D01*
X127573533Y-86094333D01*
X127573533Y-86427666D01*
X127506866Y-86561000D01*
X127440200Y-86627666D01*
X127306866Y-86694333D01*
X126906866Y-86694333D01*
X126773533Y-86627666D01*
X126706866Y-86561000D01*
%TO.C,J4*%
X146491666Y-85517380D02*
X146491666Y-86231666D01*
X146444047Y-86374523D01*
X146348809Y-86469761D01*
X146205952Y-86517380D01*
X146110714Y-86517380D01*
X147396428Y-85850714D02*
X147396428Y-86517380D01*
X147158333Y-85469761D02*
X146920238Y-86184047D01*
X147539285Y-86184047D01*
%TD*%
M02*
