%TF.GenerationSoftware,KiCad,Pcbnew,(5.1.10)-1*%
%TF.CreationDate,2021-12-06T12:22:38-06:00*%
%TF.ProjectId,FPGA-Shield,46504741-2d53-4686-9965-6c642e6b6963,rev?*%
%TF.SameCoordinates,Original*%
%TF.FileFunction,Copper,L2,Bot*%
%TF.FilePolarity,Positive*%
%FSLAX46Y46*%
G04 Gerber Fmt 4.6, Leading zero omitted, Abs format (unit mm)*
G04 Created by KiCad (PCBNEW (5.1.10)-1) date 2021-12-06 12:22:38*
%MOMM*%
%LPD*%
G01*
G04 APERTURE LIST*
%TA.AperFunction,ComponentPad*%
%ADD10C,1.875000*%
%TD*%
%TA.AperFunction,ComponentPad*%
%ADD11C,4.350000*%
%TD*%
%TA.AperFunction,ComponentPad*%
%ADD12R,1.875000X1.875000*%
%TD*%
%TA.AperFunction,ComponentPad*%
%ADD13C,2.000000*%
%TD*%
%TA.AperFunction,ComponentPad*%
%ADD14R,2.000000X2.000000*%
%TD*%
%TA.AperFunction,ComponentPad*%
%ADD15C,0.889000*%
%TD*%
%TA.AperFunction,ComponentPad*%
%ADD16C,2.500000*%
%TD*%
%TA.AperFunction,ComponentPad*%
%ADD17C,1.412500*%
%TD*%
%TA.AperFunction,ComponentPad*%
%ADD18R,1.412500X1.412500*%
%TD*%
%TA.AperFunction,ComponentPad*%
%ADD19C,1.560000*%
%TD*%
%TA.AperFunction,ComponentPad*%
%ADD20R,1.560000X1.560000*%
%TD*%
%TA.AperFunction,ViaPad*%
%ADD21C,0.800000*%
%TD*%
%TA.AperFunction,ViaPad*%
%ADD22C,1.000000*%
%TD*%
%TA.AperFunction,Conductor*%
%ADD23C,0.250000*%
%TD*%
G04 APERTURE END LIST*
D10*
%TO.P,U1,5*%
%TO.N,Net-(U1-Pad5)*%
X126480000Y-54000000D03*
%TO.P,U1,4*%
%TO.N,GND*%
X126480000Y-56500000D03*
%TO.P,U1,6*%
%TO.N,+3V3*%
X126480000Y-51500000D03*
%TO.P,U1,b*%
%TO.N,GND*%
X114500000Y-64250000D03*
X121000000Y-64250000D03*
%TO.P,U1,a*%
%TO.N,/JS_Button*%
X121000000Y-59750000D03*
X114500000Y-59750000D03*
%TO.P,U1,NC4*%
%TO.N,Net-(U1-PadNC4)*%
X124075000Y-59000000D03*
%TO.P,U1,NC3*%
%TO.N,Net-(U1-PadNC3)*%
X111425000Y-59000000D03*
%TO.P,U1,NC1*%
%TO.N,Net-(U1-PadNC1)*%
X111425000Y-49000000D03*
%TO.P,U1,NC2*%
%TO.N,Net-(U1-PadNC2)*%
X124075000Y-49000000D03*
%TO.P,U1,1*%
%TO.N,GND*%
X120250000Y-45270000D03*
%TO.P,U1,3*%
%TO.N,+3V3*%
X115250000Y-45270000D03*
%TO.P,U1,2*%
%TO.N,Net-(U1-Pad2)*%
X117750000Y-45270000D03*
%TD*%
%TO.P,R6,2*%
%TO.N,/ButtonTop*%
%TA.AperFunction,SMDPad,CuDef*%
G36*
G01*
X162450000Y-53525000D02*
X162450000Y-52275000D01*
G75*
G02*
X162700000Y-52025000I250000J0D01*
G01*
X163500000Y-52025000D01*
G75*
G02*
X163750000Y-52275000I0J-250000D01*
G01*
X163750000Y-53525000D01*
G75*
G02*
X163500000Y-53775000I-250000J0D01*
G01*
X162700000Y-53775000D01*
G75*
G02*
X162450000Y-53525000I0J250000D01*
G01*
G37*
%TD.AperFunction*%
%TO.P,R6,1*%
%TO.N,+3V3*%
%TA.AperFunction,SMDPad,CuDef*%
G36*
G01*
X159350000Y-53525000D02*
X159350000Y-52275000D01*
G75*
G02*
X159600000Y-52025000I250000J0D01*
G01*
X160400000Y-52025000D01*
G75*
G02*
X160650000Y-52275000I0J-250000D01*
G01*
X160650000Y-53525000D01*
G75*
G02*
X160400000Y-53775000I-250000J0D01*
G01*
X159600000Y-53775000D01*
G75*
G02*
X159350000Y-53525000I0J250000D01*
G01*
G37*
%TD.AperFunction*%
%TD*%
%TO.P,R5,1*%
%TO.N,+3V3*%
%TA.AperFunction,SMDPad,CuDef*%
G36*
G01*
X159300000Y-47075000D02*
X159300000Y-45825000D01*
G75*
G02*
X159550000Y-45575000I250000J0D01*
G01*
X160350000Y-45575000D01*
G75*
G02*
X160600000Y-45825000I0J-250000D01*
G01*
X160600000Y-47075000D01*
G75*
G02*
X160350000Y-47325000I-250000J0D01*
G01*
X159550000Y-47325000D01*
G75*
G02*
X159300000Y-47075000I0J250000D01*
G01*
G37*
%TD.AperFunction*%
%TO.P,R5,2*%
%TO.N,/BottomLeft*%
%TA.AperFunction,SMDPad,CuDef*%
G36*
G01*
X162400000Y-47075000D02*
X162400000Y-45825000D01*
G75*
G02*
X162650000Y-45575000I250000J0D01*
G01*
X163450000Y-45575000D01*
G75*
G02*
X163700000Y-45825000I0J-250000D01*
G01*
X163700000Y-47075000D01*
G75*
G02*
X163450000Y-47325000I-250000J0D01*
G01*
X162650000Y-47325000D01*
G75*
G02*
X162400000Y-47075000I0J250000D01*
G01*
G37*
%TD.AperFunction*%
%TD*%
%TO.P,R8,2*%
%TO.N,/ButtonRight*%
%TA.AperFunction,SMDPad,CuDef*%
G36*
G01*
X162450000Y-56825000D02*
X162450000Y-55575000D01*
G75*
G02*
X162700000Y-55325000I250000J0D01*
G01*
X163500000Y-55325000D01*
G75*
G02*
X163750000Y-55575000I0J-250000D01*
G01*
X163750000Y-56825000D01*
G75*
G02*
X163500000Y-57075000I-250000J0D01*
G01*
X162700000Y-57075000D01*
G75*
G02*
X162450000Y-56825000I0J250000D01*
G01*
G37*
%TD.AperFunction*%
%TO.P,R8,1*%
%TO.N,+3V3*%
%TA.AperFunction,SMDPad,CuDef*%
G36*
G01*
X159350000Y-56825000D02*
X159350000Y-55575000D01*
G75*
G02*
X159600000Y-55325000I250000J0D01*
G01*
X160400000Y-55325000D01*
G75*
G02*
X160650000Y-55575000I0J-250000D01*
G01*
X160650000Y-56825000D01*
G75*
G02*
X160400000Y-57075000I-250000J0D01*
G01*
X159600000Y-57075000D01*
G75*
G02*
X159350000Y-56825000I0J250000D01*
G01*
G37*
%TD.AperFunction*%
%TD*%
%TO.P,R7,1*%
%TO.N,+3V3*%
%TA.AperFunction,SMDPad,CuDef*%
G36*
G01*
X159200000Y-49825000D02*
X159200000Y-48575000D01*
G75*
G02*
X159450000Y-48325000I250000J0D01*
G01*
X160250000Y-48325000D01*
G75*
G02*
X160500000Y-48575000I0J-250000D01*
G01*
X160500000Y-49825000D01*
G75*
G02*
X160250000Y-50075000I-250000J0D01*
G01*
X159450000Y-50075000D01*
G75*
G02*
X159200000Y-49825000I0J250000D01*
G01*
G37*
%TD.AperFunction*%
%TO.P,R7,2*%
%TO.N,/ButtonBottom*%
%TA.AperFunction,SMDPad,CuDef*%
G36*
G01*
X162300000Y-49825000D02*
X162300000Y-48575000D01*
G75*
G02*
X162550000Y-48325000I250000J0D01*
G01*
X163350000Y-48325000D01*
G75*
G02*
X163600000Y-48575000I0J-250000D01*
G01*
X163600000Y-49825000D01*
G75*
G02*
X163350000Y-50075000I-250000J0D01*
G01*
X162550000Y-50075000D01*
G75*
G02*
X162300000Y-49825000I0J250000D01*
G01*
G37*
%TD.AperFunction*%
%TD*%
%TO.P,R4,2*%
%TO.N,Net-(D1-Pad3)*%
%TA.AperFunction,SMDPad,CuDef*%
G36*
G01*
X134075000Y-74100000D02*
X132825000Y-74100000D01*
G75*
G02*
X132575000Y-73850000I0J250000D01*
G01*
X132575000Y-73050000D01*
G75*
G02*
X132825000Y-72800000I250000J0D01*
G01*
X134075000Y-72800000D01*
G75*
G02*
X134325000Y-73050000I0J-250000D01*
G01*
X134325000Y-73850000D01*
G75*
G02*
X134075000Y-74100000I-250000J0D01*
G01*
G37*
%TD.AperFunction*%
%TO.P,R4,1*%
%TO.N,Net-(R4-Pad1)*%
%TA.AperFunction,SMDPad,CuDef*%
G36*
G01*
X134075000Y-77200000D02*
X132825000Y-77200000D01*
G75*
G02*
X132575000Y-76950000I0J250000D01*
G01*
X132575000Y-76150000D01*
G75*
G02*
X132825000Y-75900000I250000J0D01*
G01*
X134075000Y-75900000D01*
G75*
G02*
X134325000Y-76150000I0J-250000D01*
G01*
X134325000Y-76950000D01*
G75*
G02*
X134075000Y-77200000I-250000J0D01*
G01*
G37*
%TD.AperFunction*%
%TD*%
%TO.P,R3,2*%
%TO.N,Net-(D1-Pad1)*%
%TA.AperFunction,SMDPad,CuDef*%
G36*
G01*
X136625000Y-74100000D02*
X135375000Y-74100000D01*
G75*
G02*
X135125000Y-73850000I0J250000D01*
G01*
X135125000Y-73050000D01*
G75*
G02*
X135375000Y-72800000I250000J0D01*
G01*
X136625000Y-72800000D01*
G75*
G02*
X136875000Y-73050000I0J-250000D01*
G01*
X136875000Y-73850000D01*
G75*
G02*
X136625000Y-74100000I-250000J0D01*
G01*
G37*
%TD.AperFunction*%
%TO.P,R3,1*%
%TO.N,Net-(R3-Pad1)*%
%TA.AperFunction,SMDPad,CuDef*%
G36*
G01*
X136625000Y-77200000D02*
X135375000Y-77200000D01*
G75*
G02*
X135125000Y-76950000I0J250000D01*
G01*
X135125000Y-76150000D01*
G75*
G02*
X135375000Y-75900000I250000J0D01*
G01*
X136625000Y-75900000D01*
G75*
G02*
X136875000Y-76150000I0J-250000D01*
G01*
X136875000Y-76950000D01*
G75*
G02*
X136625000Y-77200000I-250000J0D01*
G01*
G37*
%TD.AperFunction*%
%TD*%
%TO.P,R2,2*%
%TO.N,Net-(D1-Pad4)*%
%TA.AperFunction,SMDPad,CuDef*%
G36*
G01*
X131425000Y-74100000D02*
X130175000Y-74100000D01*
G75*
G02*
X129925000Y-73850000I0J250000D01*
G01*
X129925000Y-73050000D01*
G75*
G02*
X130175000Y-72800000I250000J0D01*
G01*
X131425000Y-72800000D01*
G75*
G02*
X131675000Y-73050000I0J-250000D01*
G01*
X131675000Y-73850000D01*
G75*
G02*
X131425000Y-74100000I-250000J0D01*
G01*
G37*
%TD.AperFunction*%
%TO.P,R2,1*%
%TO.N,Net-(R2-Pad1)*%
%TA.AperFunction,SMDPad,CuDef*%
G36*
G01*
X131425000Y-77200000D02*
X130175000Y-77200000D01*
G75*
G02*
X129925000Y-76950000I0J250000D01*
G01*
X129925000Y-76150000D01*
G75*
G02*
X130175000Y-75900000I250000J0D01*
G01*
X131425000Y-75900000D01*
G75*
G02*
X131675000Y-76150000I0J-250000D01*
G01*
X131675000Y-76950000D01*
G75*
G02*
X131425000Y-77200000I-250000J0D01*
G01*
G37*
%TD.AperFunction*%
%TD*%
%TO.P,R1,2*%
%TO.N,/JS_Button*%
%TA.AperFunction,SMDPad,CuDef*%
G36*
G01*
X132850000Y-58625000D02*
X132850000Y-57375000D01*
G75*
G02*
X133100000Y-57125000I250000J0D01*
G01*
X133900000Y-57125000D01*
G75*
G02*
X134150000Y-57375000I0J-250000D01*
G01*
X134150000Y-58625000D01*
G75*
G02*
X133900000Y-58875000I-250000J0D01*
G01*
X133100000Y-58875000D01*
G75*
G02*
X132850000Y-58625000I0J250000D01*
G01*
G37*
%TD.AperFunction*%
%TO.P,R1,1*%
%TO.N,+3V3*%
%TA.AperFunction,SMDPad,CuDef*%
G36*
G01*
X129750000Y-58625000D02*
X129750000Y-57375000D01*
G75*
G02*
X130000000Y-57125000I250000J0D01*
G01*
X130800000Y-57125000D01*
G75*
G02*
X131050000Y-57375000I0J-250000D01*
G01*
X131050000Y-58625000D01*
G75*
G02*
X130800000Y-58875000I-250000J0D01*
G01*
X130000000Y-58875000D01*
G75*
G02*
X129750000Y-58625000I0J250000D01*
G01*
G37*
%TD.AperFunction*%
%TD*%
%TO.P,C1,2*%
%TO.N,GND*%
%TA.AperFunction,SMDPad,CuDef*%
G36*
G01*
X138537500Y-58650001D02*
X138537500Y-57349999D01*
G75*
G02*
X138787499Y-57100000I249999J0D01*
G01*
X139612501Y-57100000D01*
G75*
G02*
X139862500Y-57349999I0J-249999D01*
G01*
X139862500Y-58650001D01*
G75*
G02*
X139612501Y-58900000I-249999J0D01*
G01*
X138787499Y-58900000D01*
G75*
G02*
X138537500Y-58650001I0J249999D01*
G01*
G37*
%TD.AperFunction*%
%TO.P,C1,1*%
%TO.N,/JS_Button*%
%TA.AperFunction,SMDPad,CuDef*%
G36*
G01*
X135412500Y-58650001D02*
X135412500Y-57349999D01*
G75*
G02*
X135662499Y-57100000I249999J0D01*
G01*
X136487501Y-57100000D01*
G75*
G02*
X136737500Y-57349999I0J-249999D01*
G01*
X136737500Y-58650001D01*
G75*
G02*
X136487501Y-58900000I-249999J0D01*
G01*
X135662499Y-58900000D01*
G75*
G02*
X135412500Y-58650001I0J249999D01*
G01*
G37*
%TD.AperFunction*%
%TD*%
D11*
%TO.P,SW1,MH2*%
%TO.N,Net-(SW1-PadMH2)*%
X155350000Y-52000000D03*
%TO.P,SW1,MH1*%
%TO.N,Net-(SW1-PadMH1)*%
X144150000Y-52000000D03*
D10*
%TO.P,SW1,C1*%
%TO.N,GND*%
X149750000Y-59500000D03*
%TO.P,SW1,B1*%
%TO.N,Net-(R12-Pad1)*%
X152250000Y-59500000D03*
D12*
%TO.P,SW1,A1*%
%TO.N,Net-(R10-Pad2)*%
X147250000Y-59500000D03*
%TD*%
D13*
%TO.P,BZ1,2*%
%TO.N,Net-(BZ1-Pad2)*%
X99150000Y-83300000D03*
D14*
%TO.P,BZ1,1*%
%TO.N,Net-(BZ1-Pad1)*%
X99150000Y-73300000D03*
%TD*%
D15*
%TO.P,D1,1*%
%TO.N,Net-(D1-Pad1)*%
X137600000Y-63800000D03*
%TO.P,D1,2*%
%TO.N,+3V3*%
X136330000Y-63800000D03*
%TO.P,D1,3*%
%TO.N,Net-(D1-Pad3)*%
X135060000Y-63800000D03*
%TO.P,D1,4*%
%TO.N,Net-(D1-Pad4)*%
X133790000Y-63800000D03*
%TD*%
D16*
%TO.P,SW2,2*%
%TO.N,GND*%
X155100000Y-76400000D03*
%TO.P,SW2,1*%
%TO.N,/BottomLeft*%
X150600000Y-76400000D03*
%TO.P,SW2,2*%
%TO.N,GND*%
X155100000Y-69900000D03*
%TO.P,SW2,1*%
%TO.N,/BottomLeft*%
X150600000Y-69900000D03*
%TD*%
%TO.P,SW3,1*%
%TO.N,/ButtonTop*%
X165250000Y-63250000D03*
%TO.P,SW3,2*%
%TO.N,GND*%
X165250000Y-67750000D03*
%TO.P,SW3,1*%
%TO.N,/ButtonTop*%
X158750000Y-63250000D03*
%TO.P,SW3,2*%
%TO.N,GND*%
X158750000Y-67750000D03*
%TD*%
%TO.P,SW4,1*%
%TO.N,/ButtonBottom*%
X158750000Y-83250000D03*
%TO.P,SW4,2*%
%TO.N,GND*%
X158750000Y-78750000D03*
%TO.P,SW4,1*%
%TO.N,/ButtonBottom*%
X165250000Y-83250000D03*
%TO.P,SW4,2*%
%TO.N,GND*%
X165250000Y-78750000D03*
%TD*%
%TO.P,SW5,2*%
%TO.N,/ButtonRight*%
X173500000Y-76600000D03*
%TO.P,SW5,1*%
%TO.N,GND*%
X169000000Y-76600000D03*
%TO.P,SW5,2*%
%TO.N,/ButtonRight*%
X173500000Y-70100000D03*
%TO.P,SW5,1*%
%TO.N,GND*%
X169000000Y-70100000D03*
%TD*%
D17*
%TO.P,U4,14*%
%TO.N,+3V3*%
X126820000Y-78620000D03*
%TO.P,U4,13*%
%TO.N,Net-(BZ1-Pad1)*%
X124280000Y-78620000D03*
%TO.P,U4,12*%
%TO.N,Net-(BZ1-Pad2)*%
X121740000Y-78620000D03*
%TO.P,U4,11*%
%TO.N,/Buzzer*%
X119200000Y-78620000D03*
%TO.P,U4,10*%
%TO.N,Net-(BZ1-Pad1)*%
X116660000Y-78620000D03*
%TO.P,U4,9*%
%TO.N,/ChipSelect*%
X114120000Y-78620000D03*
%TO.P,U4,8*%
%TO.N,Net-(U3-Pad4)*%
X111580000Y-78620000D03*
%TO.P,U4,7*%
%TO.N,GND*%
X111580000Y-70680000D03*
%TO.P,U4,6*%
%TO.N,Net-(R2-Pad1)*%
X114120000Y-70680000D03*
%TO.P,U4,5*%
%TO.N,/LED_B*%
X116660000Y-70680000D03*
%TO.P,U4,4*%
%TO.N,Net-(R4-Pad1)*%
X119200000Y-70680000D03*
%TO.P,U4,3*%
%TO.N,/LED_G*%
X121740000Y-70680000D03*
%TO.P,U4,2*%
%TO.N,Net-(R3-Pad1)*%
X124280000Y-70680000D03*
D18*
%TO.P,U4,1*%
%TO.N,/LED_R*%
X126820000Y-70680000D03*
%TD*%
D19*
%TO.P,J1,05*%
%TO.N,/LED_R*%
X123699900Y-41000000D03*
%TO.P,J1,04*%
%TO.N,GND*%
X121159900Y-41000000D03*
%TO.P,J1,03*%
%TO.N,Net-(J1-Pad03)*%
X118619900Y-41000000D03*
%TO.P,J1,02*%
%TO.N,/LED_G*%
X116079900Y-41000000D03*
D20*
%TO.P,J1,01*%
%TO.N,/LED_B*%
X113539900Y-41000000D03*
D19*
%TO.P,J1,10*%
%TO.N,/JS_Button*%
X136399900Y-41000000D03*
%TO.P,J1,09*%
%TO.N,/SPI_CLK*%
X133859900Y-41000000D03*
%TO.P,J1,08*%
%TO.N,/SPI2FPGA*%
X131319900Y-41000000D03*
%TO.P,J1,07*%
%TO.N,/FPGA2SPI*%
X128779900Y-41000000D03*
%TO.P,J1,06*%
%TO.N,/ChipSelect*%
X126239900Y-41000000D03*
%TD*%
%TO.P,J2,08*%
%TO.N,/BottomLeft*%
X157990000Y-41000000D03*
%TO.P,J2,07*%
%TO.N,/ButtonBottom*%
X155450000Y-41000000D03*
%TO.P,J2,06*%
%TO.N,/ButtonTop*%
X152910000Y-41000000D03*
%TO.P,J2,05*%
%TO.N,/ButtonRight*%
X150370000Y-41000000D03*
%TO.P,J2,04*%
%TO.N,/FPGA2Rot*%
X147830000Y-41000000D03*
%TO.P,J2,03*%
%TO.N,/Rot2FPGA*%
X145290000Y-41000000D03*
%TO.P,J2,02*%
%TO.N,/Buzzer*%
X142750000Y-41000000D03*
D20*
%TO.P,J2,01*%
%TO.N,Net-(J2-Pad01)*%
X140210000Y-41000000D03*
%TD*%
%TO.P,J3,01*%
%TO.N,Net-(J3-Pad01)*%
X123720200Y-88700000D03*
D19*
%TO.P,J3,02*%
%TO.N,/IOREF*%
X126260200Y-88700000D03*
%TO.P,J3,03*%
%TO.N,/Reset*%
X128800200Y-88700000D03*
%TO.P,J3,04*%
%TO.N,+3V3*%
X131340200Y-88700000D03*
%TO.P,J3,05*%
%TO.N,+5V*%
X133880200Y-88700000D03*
%TO.P,J3,06*%
%TO.N,GND*%
X136420200Y-88700000D03*
%TO.P,J3,07*%
X138960200Y-88700000D03*
%TO.P,J3,08*%
%TO.N,/Vin*%
X141500200Y-88700000D03*
%TD*%
D20*
%TO.P,J4,01*%
%TO.N,/A0*%
X145300000Y-88700000D03*
D19*
%TO.P,J4,02*%
%TO.N,/A1*%
X147840000Y-88700000D03*
%TO.P,J4,03*%
%TO.N,/A2*%
X150380000Y-88700000D03*
%TO.P,J4,04*%
%TO.N,/A3*%
X152920000Y-88700000D03*
%TO.P,J4,05*%
%TO.N,/A4(SDA)*%
X155460000Y-88700000D03*
%TO.P,J4,06*%
%TO.N,/A5(SCL)*%
X158000000Y-88700000D03*
%TD*%
D21*
%TO.N,+3V3*%
X130400000Y-55420000D03*
X120600000Y-48100000D03*
%TO.N,Net-(U3-Pad4)*%
X117848126Y-76098126D03*
%TO.N,/Rot2FPGA*%
X142300000Y-63950000D03*
D22*
%TO.N,/FPGA2Rot*%
X149850000Y-63800000D03*
D21*
%TO.N,Net-(U1-Pad5)*%
X127750000Y-47750000D03*
%TD*%
D23*
%TO.N,Net-(BZ1-Pad2)*%
X117060000Y-83300000D02*
X99150000Y-83300000D01*
X121740000Y-78620000D02*
X117060000Y-83300000D01*
%TO.N,Net-(BZ1-Pad1)*%
X117691251Y-77588749D02*
X116660000Y-78620000D01*
X123248749Y-77588749D02*
X117691251Y-77588749D01*
X124280000Y-78620000D02*
X123248749Y-77588749D01*
X116660000Y-78620000D02*
X116660000Y-81190000D01*
X107040000Y-81190000D02*
X99150000Y-73300000D01*
X116660000Y-81190000D02*
X107040000Y-81190000D01*
%TO.N,GND*%
X113237499Y-62987499D02*
X114500000Y-64250000D01*
X120250000Y-45270000D02*
X113237499Y-52282501D01*
X113274998Y-56500000D02*
X113237499Y-56462501D01*
X126480000Y-56500000D02*
X113274998Y-56500000D01*
X113237499Y-56462501D02*
X113237499Y-62987499D01*
X113237499Y-52282501D02*
X113237499Y-56462501D01*
X144574999Y-64675001D02*
X149750000Y-59500000D01*
X141951999Y-64675001D02*
X144574999Y-64675001D01*
X139200000Y-61923002D02*
X141951999Y-64675001D01*
X139200000Y-58000000D02*
X139200000Y-61923002D01*
X122061010Y-39658990D02*
X120720000Y-41000000D01*
X124804901Y-40469599D02*
X123994292Y-39658990D01*
X124804901Y-42040924D02*
X124804901Y-40469599D01*
X121575825Y-45270000D02*
X124804901Y-42040924D01*
X123994292Y-39658990D02*
X122061010Y-39658990D01*
X120250000Y-45270000D02*
X121575825Y-45270000D01*
%TO.N,+3V3*%
X130400000Y-55420000D02*
X130400000Y-58000000D01*
X126480000Y-51500000D02*
X130400000Y-55420000D01*
X130400000Y-55420000D02*
X130400000Y-55420000D01*
X159950000Y-49100000D02*
X159850000Y-49200000D01*
X159950000Y-46450000D02*
X159950000Y-49100000D01*
X159850000Y-52750000D02*
X160000000Y-52900000D01*
X159850000Y-49200000D02*
X159850000Y-52750000D01*
X160000000Y-52900000D02*
X160000000Y-53850000D01*
X160000000Y-52900000D02*
X160000000Y-56200000D01*
X151074989Y-65125011D02*
X160000000Y-56200000D01*
X141765599Y-65125011D02*
X151074989Y-65125011D01*
X139540587Y-62899999D02*
X141765599Y-65125011D01*
X136416829Y-62899999D02*
X139540587Y-62899999D01*
X136330000Y-62986828D02*
X136416829Y-62899999D01*
X136330000Y-63800000D02*
X136330000Y-62986828D01*
X121675001Y-47024999D02*
X120600000Y-48100000D01*
X128098001Y-47024999D02*
X121675001Y-47024999D01*
X128475001Y-47401999D02*
X128098001Y-47024999D01*
X128475001Y-49504999D02*
X128475001Y-47401999D01*
X126480000Y-51500000D02*
X128475001Y-49504999D01*
X126820000Y-84179800D02*
X131340200Y-88700000D01*
X126820000Y-78620000D02*
X126820000Y-84179800D01*
%TO.N,Net-(D1-Pad1)*%
X137600000Y-71850000D02*
X137600000Y-63800000D01*
X136000000Y-73450000D02*
X137600000Y-71850000D01*
%TO.N,Net-(D1-Pad3)*%
X135060000Y-71840000D02*
X135060000Y-63800000D01*
X133450000Y-73450000D02*
X135060000Y-71840000D01*
%TO.N,Net-(D1-Pad4)*%
X130800000Y-66790000D02*
X133790000Y-63800000D01*
X130800000Y-73450000D02*
X130800000Y-66790000D01*
%TO.N,Net-(R2-Pad1)*%
X119990000Y-76550000D02*
X130800000Y-76550000D01*
X114120000Y-70680000D02*
X119990000Y-76550000D01*
%TO.N,Net-(R3-Pad1)*%
X124280000Y-70680000D02*
X128050000Y-74450000D01*
X133900000Y-74450000D02*
X136000000Y-76550000D01*
X128050000Y-74450000D02*
X133900000Y-74450000D01*
%TO.N,Net-(R4-Pad1)*%
X131800010Y-74900010D02*
X133450000Y-76550000D01*
X123420010Y-74900010D02*
X131800010Y-74900010D01*
X119200000Y-70680000D02*
X123420010Y-74900010D01*
%TO.N,Net-(U3-Pad4)*%
X114101874Y-76098126D02*
X111580000Y-78620000D01*
X117848126Y-76098126D02*
X114101874Y-76098126D01*
%TO.N,/JS_Button*%
X133500000Y-58000000D02*
X136075000Y-58000000D01*
X114500000Y-59750000D02*
X121000000Y-59750000D01*
X130812501Y-60687499D02*
X133500000Y-58000000D01*
X121937499Y-60687499D02*
X130812501Y-60687499D01*
X121000000Y-59750000D02*
X121937499Y-60687499D01*
X135930000Y-57855000D02*
X136075000Y-58000000D01*
X136075000Y-41324900D02*
X136399900Y-41000000D01*
X136075000Y-58000000D02*
X136075000Y-41324900D01*
%TO.N,/BottomLeft*%
X163050000Y-46050000D02*
X158000000Y-41000000D01*
X163050000Y-46450000D02*
X163050000Y-46050000D01*
X157993999Y-84825001D02*
X157174999Y-84006001D01*
X167606001Y-84825001D02*
X157993999Y-84825001D01*
X156324999Y-74824999D02*
X152175001Y-74824999D01*
X176150039Y-76280963D02*
X167606001Y-84825001D01*
X157174999Y-84006001D02*
X157174999Y-75674999D01*
X157174999Y-75674999D02*
X156324999Y-74824999D01*
X152175001Y-74824999D02*
X150600000Y-76400000D01*
X163050000Y-46450000D02*
X165900000Y-49300000D01*
X165900000Y-49300000D02*
X165900000Y-58350000D01*
X176150039Y-68600039D02*
X176150039Y-76280963D01*
X165900000Y-58350000D02*
X176150039Y-68600039D01*
%TO.N,/ButtonTop*%
X170575001Y-68575001D02*
X170575001Y-69506003D01*
X172743999Y-71675001D02*
X174256001Y-71675001D01*
X165250000Y-63250000D02*
X170575001Y-68575001D01*
X170575001Y-69506003D02*
X172743999Y-71675001D01*
X174256001Y-71675001D02*
X175250019Y-70680983D01*
X163100000Y-52900000D02*
X164400000Y-54200000D01*
X164400000Y-59113590D02*
X167700000Y-62413590D01*
X164400000Y-54200000D02*
X164400000Y-59113590D01*
X175250019Y-69519017D02*
X175250019Y-70680983D01*
X174256001Y-68524999D02*
X175250019Y-69519017D01*
X172743999Y-68524999D02*
X174256001Y-68524999D01*
X167700000Y-63481000D02*
X172743999Y-68524999D01*
X167700000Y-62413590D02*
X167700000Y-63481000D01*
%TO.N,/ButtonBottom*%
X156801010Y-42341010D02*
X155460000Y-41000000D01*
X162074990Y-46224990D02*
X158191010Y-42341010D01*
X162074990Y-48324990D02*
X162074990Y-46224990D01*
X158191010Y-42341010D02*
X156801010Y-42341010D01*
X162950000Y-49200000D02*
X162074990Y-48324990D01*
X170575001Y-75992411D02*
X175700029Y-70867383D01*
X165250000Y-83250000D02*
X170575001Y-77924999D01*
X170575001Y-77924999D02*
X170575001Y-75992411D01*
X162950000Y-49200000D02*
X165200000Y-51450000D01*
X165200000Y-59277180D02*
X168250000Y-62327180D01*
X165200000Y-51450000D02*
X165200000Y-59277180D01*
X175700029Y-69332617D02*
X175700029Y-70867383D01*
X168694592Y-62327180D02*
X175700029Y-69332617D01*
X168250000Y-62327180D02*
X168694592Y-62327180D01*
%TO.N,/ButtonRight*%
X162525000Y-56375000D02*
X162909499Y-56759499D01*
X163100000Y-56200000D02*
X163100000Y-58450000D01*
X167050000Y-62400000D02*
X167050000Y-64150000D01*
X163100000Y-58450000D02*
X167050000Y-62400000D01*
X173000000Y-70100000D02*
X173500000Y-70100000D01*
X167050000Y-64150000D02*
X173000000Y-70100000D01*
%TO.N,/Rot2FPGA*%
X146650001Y-57639997D02*
X142300000Y-61989998D01*
X146650001Y-42350001D02*
X146650001Y-57639997D01*
X145300000Y-41000000D02*
X146650001Y-42350001D01*
X142300000Y-61989998D02*
X142300000Y-63950000D01*
X142300000Y-63950000D02*
X142300000Y-63950000D01*
%TO.N,/FPGA2Rot*%
X147840000Y-48826412D02*
X147840000Y-41000000D01*
X153512501Y-54498913D02*
X147840000Y-48826412D01*
X153512501Y-60137499D02*
X153512501Y-54498913D01*
X149850000Y-63800000D02*
X153512501Y-60137499D01*
%TO.N,/LED_B*%
X108799982Y-62819982D02*
X116660000Y-70680000D01*
X108799982Y-45739920D02*
X108799982Y-49800019D01*
X113539900Y-41000000D02*
X108799982Y-45739920D01*
X108799982Y-49800019D02*
X108799982Y-62800018D01*
%TO.N,/LED_G*%
X117393837Y-69648749D02*
X109249991Y-61504903D01*
X120708749Y-69648749D02*
X117393837Y-69648749D01*
X121740000Y-70680000D02*
X120708749Y-69648749D01*
X109249990Y-47829910D02*
X109249990Y-49150010D01*
X116079900Y-41000000D02*
X109249990Y-47829910D01*
X109249991Y-61504903D02*
X109249990Y-49150010D01*
%TO.N,/LED_R*%
X109700000Y-61318502D02*
X114031498Y-65650000D01*
X109700000Y-48856498D02*
X109700000Y-61318502D01*
X121790000Y-65650000D02*
X126820000Y-70680000D01*
X114031498Y-65650000D02*
X121790000Y-65650000D01*
X120692401Y-44007499D02*
X123699900Y-41000000D01*
X114548999Y-44007499D02*
X120692401Y-44007499D01*
X109700000Y-48856498D02*
X114548999Y-44007499D01*
%TO.N,Net-(U1-Pad5)*%
X125237499Y-50262501D02*
X127750000Y-47750000D01*
X119286497Y-50262501D02*
X125237499Y-50262501D01*
X118374999Y-51726001D02*
X118374999Y-51173999D01*
X118374999Y-51173999D02*
X119286497Y-50262501D01*
X120648998Y-54000000D02*
X118374999Y-51726001D01*
X126480000Y-54000000D02*
X120648998Y-54000000D01*
%TD*%
M02*
