M48
; DRILL file {KiCad (5.1.10)-1} date 12/06/21 12:23:11
; FORMAT={-:-/ absolute / inch / decimal}
; #@! TF.CreationDate,2021-12-06T12:23:11-06:00
; #@! TF.GenerationSoftware,Kicad,Pcbnew,(5.1.10)-1
; #@! TF.FileFunction,Plated,1,2,PTH
FMAT,2
INCH
T1C0.0157
T2C0.0197
T3C0.0250
T4C0.0287
T5C0.0394
T6C0.0409
T7C0.0433
T8C0.1142
%
G90
G05
T1
X4.6397Y-2.996
X4.748Y-1.8937
X5.0295Y-1.8799
X5.1339Y-2.1819
X5.6024Y-2.5177
T2
X5.8996Y-2.5118
T3
X5.2673Y-2.5118
X5.3173Y-2.5118
X5.3673Y-2.5118
X5.4173Y-2.5118
T4
X4.3929Y-2.7827
X4.3929Y-3.0953
X4.4929Y-2.7827
X4.4929Y-3.0953
X4.5929Y-2.7827
X4.5929Y-3.0953
X4.6929Y-2.7827
X4.6929Y-3.0953
X4.7929Y-2.7827
X4.7929Y-3.0953
X4.8929Y-2.7827
X4.8929Y-3.0953
X4.9929Y-2.7827
X4.9929Y-3.0953
T5
X3.9035Y-2.8858
X3.9035Y-3.2795
X4.5079Y-2.3524
X4.5079Y-2.5295
X4.5374Y-1.7823
X4.6358Y-1.7823
X4.7343Y-1.7823
X4.7638Y-2.3524
X4.7638Y-2.5295
X4.9795Y-2.0276
X4.9795Y-2.126
X4.9795Y-2.2244
X5.7972Y-2.3425
X5.8957Y-2.3425
X5.9941Y-2.3425
T6
X4.4701Y-1.6142
X4.5701Y-1.6142
X4.6701Y-1.6142
X4.7701Y-1.6142
X4.8701Y-1.6142
X4.8709Y-3.4921
X4.9701Y-1.6142
X4.9709Y-3.4921
X5.0701Y-1.6142
X5.0709Y-3.4921
X5.1701Y-1.6142
X5.1709Y-3.4921
X5.2701Y-1.6142
X5.2709Y-3.4921
X5.3701Y-1.6142
X5.3709Y-3.4921
X5.4709Y-3.4921
X5.5201Y-1.6142
X5.5709Y-3.4921
X5.6201Y-1.6142
X5.7201Y-1.6142
X5.7205Y-3.4921
X5.8201Y-1.6142
X5.8205Y-3.4921
X5.9201Y-1.6142
X5.9205Y-3.4921
X6.0201Y-1.6142
X6.0205Y-3.4921
X6.1201Y-1.6142
X6.1205Y-3.4921
X6.2201Y-1.6142
X6.2205Y-3.4921
T7
X4.3868Y-1.9291
X4.3868Y-2.3228
X4.8848Y-1.9291
X4.8848Y-2.3228
X5.9291Y-2.752
X5.9291Y-3.0079
X6.1063Y-2.752
X6.1063Y-3.0079
X6.25Y-2.4902
X6.25Y-2.6673
X6.25Y-3.1004
X6.25Y-3.2776
X6.5059Y-2.4902
X6.5059Y-2.6673
X6.5059Y-3.1004
X6.5059Y-3.2776
X6.6535Y-2.7598
X6.6535Y-3.0157
X6.8307Y-2.7598
X6.8307Y-3.0157
T8
X5.6752Y-2.0472
X6.1161Y-2.0472
T0
M30
